# xmcd
#
# Track frame offsets: 
#        150
#        12775
#        26552
#        42289
#        59342
#        74757
#        87902
#        100787
#        116687
#        130917
#
# Disc length: 1928 seconds
#
# Revision: 0
# Processed by: cddbd v1.5PL3 Copyright (c) Steve Scherf et al.
# Submitted via: ExactAudioCopy v0.95a4
#
DISCID=8407860a
DTITLE=Aaron Tippin - All American Country
DYEAR=2003
DGENRE=Country
TTITLE0=There Ain't Nothin' Wrong With The Radio
TTITLE1=You've Got To Stand For Something
TTITLE2=Working Man's Ph.D.
TTITLE3=I Got IT Honest
TTITLE4=My Blue Angel
TTITLE5=Honky-Tonk Superman
TTITLE6=I Was Born With A Broken Heart
TTITLE7=I WOnder How Far It Is Over You
TTITLE8=How's The Radio Know
TTITLE9=Country Boy's Tool Box
EXTD=
EXTT0=
EXTT1=
EXTT2=
EXTT3=
EXTT4=
EXTT5=
EXTT6=
EXTT7=
EXTT8=
EXTT9=
PLAYORDER=
